Coordinates
version=1
nRows=9
nColumns=63
inDegrees=yes

Units are S.I. units (second, meters, Newtons, ...)
If the header above contains a line with 'inDegrees', this indicates whether rotational values are in degrees (yes) or radians (no).

endheader
time	pelvis_tilt	pelvis_list	pelvis_rotation	pelvis_tx	pelvis_ty	pelvis_tz	hip_flexion_r	hip_adduction_r	hip_rotation_r	knee_angle_r	knee_angle_r_beta	ankle_angle_r	subtalar_angle_r	mtp_angle_r	hip_flexion_l	hip_adduction_l	hip_rotation_l	knee_angle_l	knee_angle_l_beta	ankle_angle_l	subtalar_angle_l	mtp_angle_l	L5_S1_Flex_Ext	L5_S1_Lat_Bending	L5_S1_axial_rotation	L4_L5_Flex_Ext	L4_L5_Lat_Bending	L4_L5_axial_rotation	L3_L4_Flex_Ext	L3_L4_Lat_Bending	L3_L4_axial_rotation	L2_L3_Flex_Ext	L2_L3_Lat_Bending	L2_L3_axial_rotation	L1_L2_Flex_Ext	L1_L2_Lat_Bending	L1_L2_axial_rotation	L1_T12_Flex_Ext	L1_T12_Lat_Bending	L1_T12_axial_rotation	Abs_r3	Abs_r2	Abs_r1	Abs_t1	Abs_t2	neck_flexion	neck_bending	neck_rotation	arm_flex_r	arm_add_r	arm_rot_r	elbow_flex_r	pro_sup_r	wrist_flex_r	wrist_dev_r	arm_flex_l	arm_add_l	arm_rot_l	elbow_flex_l	pro_sup_l	wrist_flex_l	wrist_dev_l
      3.35000000	      3.29898368	     -4.03610165	     99.81232208	      0.26065212	      0.72067560	      0.79670589	      2.80969729	      4.81739283	     -3.32778429	      4.05615177	      0.07079320	     33.25997895	      1.07744792	      0.00000000	      1.17016954	     -6.27159972	      0.78671905	      5.92686737	      0.10344335	     33.83477550	     13.14959977	      0.00000000	      0.08494621	      0.13387303	     -0.90777121	      0.15775361	      0.17805114	     -0.96450691	      0.13955814	      0.32549890	     -0.96450691	      0.09708503	      0.32549890	     -0.79429981	      0.07888105	      0.27299389	     -0.73756411	      0.04853827	      0.20736933	     -0.68082841	      0.60676231	      1.51439854	     -5.04875115	      0.00000000	      0.00000000	     22.02137167	     -8.46451576	    -10.66006366	      8.79158635	    -10.22338094	     55.03358521	     57.30844163	     56.96793200	      0.67360525	     15.45632367	      6.50536672	    -10.11327898	     40.10580075	     54.28877397	     89.17576157	      7.12687030	     26.93457669
      3.36666667	      3.15383294	     -4.22446916	    100.02369905	      0.26030805	      0.72070112	      0.79705649	      2.73953537	      4.68073258	     -2.43065768	      3.57111985	      0.06232780	     33.10632860	     -0.35478443	      0.00000000	      1.56683928	     -6.12232431	     -0.09156500	      6.13357458	      0.10705107	     34.12573107	     13.55805581	      0.00000000	      0.09678859	      0.11512560	     -1.01210100	      0.17974610	      0.15311704	     -1.07535732	      0.15901398	      0.27991637	     -1.07535732	      0.11061968	      0.27991637	     -0.88558838	      0.08987789	      0.23476412	     -0.82233206	      0.05530500	      0.17832955	     -0.75907575	      0.69135125	      1.30232377	     -5.62900214	      0.00000000	      0.00000000	     22.97754427	     -9.10557120	     -9.53234810	      9.71699896	     -9.78664941	     56.63746458	     56.49867729	     62.92707016	     -0.56451789	     14.61195013	      6.21584601	     -9.07329537	     36.79988019	     55.57338071	     89.13053706	     12.69661460	     31.81980452
      3.38333333	      3.20770757	     -4.42457543	    100.16003246	      0.25987447	      0.72093899	      0.79797281	      2.82089333	      4.73725294	     -0.70038192	      3.23736401	      0.05650266	     32.30952225	     -3.28314526	      0.00000000	      2.00685786	     -6.17040360	     -1.23679238	      6.40416695	      0.11177380	     34.20648744	     14.07163056	      0.00000000	      0.09737870	      0.12321113	     -1.03941671	      0.18084199	      0.16387080	     -1.10438025	      0.15998347	      0.29957554	     -1.10438025	      0.11129412	      0.29957554	     -0.90948962	      0.09042586	      0.25125214	     -0.84452608	      0.05564219	      0.19085404	     -0.77956253	      0.69556633	      1.39378895	     -5.78092391	      0.00000000	      0.00000000	     23.78915825	    -10.00602812	     -8.60993587	      9.72149730	     -9.54841833	     54.62413769	     56.46487112	     79.82049492	      0.88341638	     13.44337619	      6.58459630	     -8.37608752	     36.46778171	     56.04982596	     88.97636483	     15.00991093	     33.27916160
      3.40000000	      3.30828690	     -4.61831495	    100.44889657	      0.25926907	      0.72127144	      0.79908100	      2.97370300	      4.78411403	     -0.82800304	      2.99942903	      0.05234991	     31.80713112	     -4.31024185	      0.00000000	      2.49028116	     -6.24196952	     -1.69310404	      6.75197074	      0.11784412	     34.05449982	     14.17438498	      0.00000000	      0.09379148	      0.12940740	     -1.09205170	      0.17418016	      0.17211185	     -1.16030493	      0.15409002	      0.31464116	     -1.16030493	      0.10719428	      0.31464116	     -0.95554524	      0.08709477	      0.26388758	     -0.88729201	      0.05359245	      0.20045207	     -0.81903878	      0.66994317	      1.46388243	     -6.07366395	      0.00000000	      0.00000000	     24.31092429	    -10.49158431	     -7.79802015	      9.97473494	     -9.84396027	     54.54320497	     56.95560464	     84.58063756	     -1.88458998	     11.56743305	      6.91131811	     -7.78762092	     36.56834617	     56.08343784	     88.67199076	     17.04648957	     33.68449977
      3.41666667	      3.28594802	     -4.73994705	    100.51809794	      0.25895435	      0.72180308	      0.80008086	      3.08072937	      4.71894890	     -1.33788997	      2.84966757	      0.04973608	     31.35992976	     -4.70123184	      0.00000000	      2.78346735	     -6.18112889	     -2.12750932	      7.03734816	      0.12282490	     33.64779742	     13.98382759	      0.00000000	      0.07753705	      0.11458641	     -1.11495424	      0.14399406	      0.15239992	     -1.18463889	      0.12738562	      0.27860540	     -1.18463889	      0.08861709	      0.27860540	     -0.97558496	      0.07200090	      0.23366461	     -0.90590032	      0.04430467	      0.17749435	     -0.83621568	      0.55383939	      1.29622438	     -6.20104102	      0.00000000	      0.00000000	     24.51170538	    -10.75207944	     -7.48930775	     10.03923012	    -10.14043883	     53.87799477	     57.47075378	     85.07880811	     -2.37984229	     10.88733929	      6.93763256	     -7.38255818	     36.76933024	     56.21502466	     88.05508227	     17.34294899	     33.80592222
      3.43333333	      3.42880298	     -4.83599873	    101.11285012	      0.25816782	      0.72241674	      0.80117013	      3.11684022	      4.82573732	     -1.77501428	      2.55453553	      0.04458506	     30.70343783	     -5.46118949	      0.00000000	      3.23513202	     -6.32950816	     -2.17932335	      7.43113496	      0.12969777	     33.63402735	     14.76843264	      0.00000000	      0.07377497	      0.11457061	     -1.08873229	      0.13700750	      0.15237892	     -1.15677805	      0.12120490	      0.27856699	     -1.15677805	      0.08431741	      0.27856699	     -0.95264075	      0.06850744	      0.23363240	     -0.88459498	      0.04215502	      0.17746988	     -0.81654921	      0.52696723	      1.29604570	     -6.05520236	      0.00000000	      0.00000000	     24.46588666	    -11.08674469	     -7.69140301	      9.04863628	    -10.33715336	     51.73437856	     57.69093406	     86.80759334	     -4.37773453	      8.43009286	      7.79414967	     -7.03399109	     38.95352266	     55.48303240	     86.02662081	     17.62234075	     33.76183611
      3.45000000	      3.48475871	     -4.81975527	    101.50461759	      0.25739932	      0.72316641	      0.80201846	      3.03235361	      4.86725830	     -2.13963601	      2.33086953	      0.04068135	     30.15421365	     -5.77174171	      0.00000000	      3.41742978	     -6.38241641	     -2.36404566	      7.69929886	      0.13437812	     33.43364457	     15.27365009	      0.00000000	      0.06614724	      0.10891390	     -1.02471970	      0.12284205	      0.14485548	     -1.08876469	      0.10867331	      0.26481325	     -1.08876469	      0.07559969	      0.26481325	     -0.89662974	      0.06142433	      0.22209722	     -0.83258476	      0.03779654	      0.16870763	     -0.76853978	      0.47248315	      1.23205580	     -5.69918358	      0.00000000	      0.00000000	     24.22120607	    -11.30997757	     -8.10073994	      8.04307460	    -10.59836207	     49.66329941	     58.01137070	     86.64435180	     -4.59415031	      7.41218201	      8.74106502	     -6.93497510	     41.87676066	     54.78011584	     82.16804019	     16.28629181	     33.73509610
      3.46666667	      3.51188174	     -4.76797524	    101.72091234	      0.25709543	      0.72390757	      0.80285824	      2.90207193	      4.89543556	     -3.20890549	      2.11729503	      0.03695377	     29.92414542	     -4.41867663	      0.00000000	      3.48737391	     -6.43190452	     -2.47589110	      7.93553295	      0.13850118	     33.06910247	     15.52382110	      0.00000000	      0.05631088	      0.09650800	     -0.99112784	      0.10457493	      0.12835565	     -1.05307333	      0.09251314	      0.23464956	     -1.05307333	      0.06435770	      0.23464956	     -0.86723686	      0.05229028	      0.19679912	     -0.80529137	      0.03217604	      0.14949090	     -0.74334588	      0.40222298	      1.09171784	     -5.51235571	      0.00000000	      0.00000000	     23.96224104	    -11.16463171	     -8.39789794	      7.46586026	    -10.69049179	     48.37648272	     58.03306161	     86.68119700	     -4.37571963	      7.10423442	      9.51002284	     -7.63557989	     50.10656093	     58.69133927	     19.85792387	    -33.97104736	     31.74960630
      3.48333333	      3.63153773	     -4.67684210	    101.92728654	      0.25650623	      0.72469766	      0.80357409	      2.76323358	      5.02849300	     -3.20028521	      1.98666283	      0.03467381	     29.37124499	     -4.29965770	      0.00000000	      3.48893846	     -6.57174554	     -2.54466525	      8.13948850	      0.14206087	     32.74208515	     15.64282870	      0.00000000	      0.05619490	      0.10768420	     -0.96225582	      0.10435955	      0.14321998	     -1.02239681	      0.09232260	      0.26182336	     -1.02239681	      0.06422515	      0.26182336	     -0.84197384	      0.05218259	      0.21958962	     -0.78183285	      0.03210977	      0.16680282	     -0.72169186	      0.40139456	      1.21814518	     -5.35177818	      0.00000000	      0.00000000	     23.62334700	    -11.16107263	     -8.22044014	      7.14198768	    -10.85859978	     47.74551827	     57.75494149	     86.65765184	     -4.69853165	      6.52193081	     10.26957531	     -7.54625530	     52.24047225	     58.27969760	     19.98539089	    -33.96222038	     31.42613026
